PathFileType	4	(X/Y/Z)	D:\Long Term Storage\D'Arcy Smith\Coord8.trc
DataRate	CameraRate	NumFrames	NumMarkers	Units	OrigDataRate	OrigDataStartFrame	OrigNumFrames
120.00	120.00	      146	4	mm	120.00	2569	      5136
Frame#	Time	M1			M2			M3			M4			
		X1	Y1	Z1	X2	Y2	Z2	X3	Y3	Z3	X4	Y4	Z4	

2569	21.400	1069.99707	463.69418	189.43234	1569.95337	439.54572	224.76347							
2570	21.408	1068.29944	453.82974	197.40213	1572.16956	428.96021	236.80095							
2571	21.417	1066.69312	443.08875	206.44211	1574.88220	418.06314	250.07030							
2572	21.425	1064.88855	432.09222	216.18315	1578.82080	408.02414	264.77115							
2573	21.433	1063.66150	420.49255	226.54449	1582.51440	397.62595	281.62717							
2574	21.442	1062.42981	408.70053	237.80116	1586.31653	387.70822	299.89859							
2575	21.450	1061.62268	396.80542	248.08801	1589.91553	378.25983	319.48752							
2576	21.458	1060.00439	383.94635	265.13989	1593.32129	369.96002	339.81848							
2577	21.467	1058.60669	371.15997	279.44479	1598.74011	363.66574	360.97223							
2578	21.475	1057.61926	359.62134	294.22873	1603.26807	358.11938	382.19360							
2579	21.483	1057.08179	348.75046	309.55887	1607.28455	353.79321	402.92987							
2580	21.492	1056.13159	338.88535	326.40915	1610.75391	350.68256	422.67227							
2581	21.500	1055.79883	329.92892	343.54715	1613.92139	348.59332	441.47351							
2582	21.508	1055.15173	322.06433	361.64075	1615.68152	347.41101	457.73782							
2583	21.517	1054.69897	315.64023	380.29327	1616.85669	346.67706	472.03528							
2584	21.525	1053.99841	310.90805	398.48138	1617.31128	346.35760	484.05371							
2585	21.533	1053.35901	307.46475	419.39633	1616.75623	345.73904	493.81754							
2586	21.542	1053.20654	305.55038	437.15637	1616.13489	345.75046	500.88367							
2587	21.550	1054.21619	305.13864	453.22568	1614.71362	345.52499	506.38669							
2588	21.558	1054.44458	304.56622	470.61588	1612.78760	345.10733	509.91171							
2589	21.567	1054.54565	304.68805	486.99332	1610.86633	344.89557	511.49475							
2590	21.575	1054.50403	305.26794	502.49042	1608.11865	344.61298	511.16547							
2591	21.583	1054.14783	305.37909	517.66876	1605.00159	344.12326	509.32086							
2592	21.592	1053.83240	305.93747	533.36017	1601.85083	343.64526	505.99173							
2593	21.600	1053.90942	307.81857	546.21692	1598.60205	343.24762	501.52444							
2594	21.608	1054.21375	309.92365	557.43866	1594.29834	342.77039	496.48325							
2595	21.617	1054.48657	312.33755	568.05981	1591.90552	343.04767	490.30481							
2596	21.625	1054.76270	314.42740	576.00409	1589.39844	343.67542	483.24899							
2597	21.633	1054.58936	316.91504	584.08777	1587.24792	344.70886	475.68472							
2598	21.642	1055.48535	319.94199	589.13580	1585.46716	346.13504	467.48346							
2599	21.650	1055.97925	322.10916	591.60400	1584.28113	348.15646	458.81082							
2600	21.658	1056.35242	324.29181	593.66119	1583.71277	350.47025	449.50888							
2601	21.667	1056.91675	326.09747	592.81879	1582.75525	353.23477	439.46472							
2602	21.675	1057.70093	327.55307	590.70276	1582.20862	356.17130	429.06055							
2603	21.683	1058.45923	328.05756	585.35345	1582.16931	359.63184	417.25211							
2604	21.692	1059.25305	327.97278	578.44330	1581.74304	363.06284	405.42383							
2605	21.700	1060.58167	328.50839	567.42291	1582.01282	367.56015	392.80606							
2606	21.708	1061.70227	328.31436	555.48083	1582.41931	372.36340	379.85419							
2607	21.717	1063.00220	328.14594	541.59186	1582.77979	377.52234	366.73074							
2608	21.725	1064.23242	328.22327	526.39368	1582.57666	382.78339	353.07700							
2609	21.733	1065.76318	328.86371	509.24149	1582.97681	388.71445	339.65350							
2610	21.742	1067.33032	329.94769	490.98831	1583.19849	395.00290	326.24872							
2611	21.750	1068.95483	331.97885	472.02756	1583.19788	401.46143	313.06921							
2612	21.758	1070.60779	334.65152	451.91190	1583.52795	408.33340	300.28705							
2613	21.767	1072.29211	338.17258	431.96637	1584.03430	415.62000	288.04871							
2614	21.775	1074.00671	342.83246	411.52002	1583.94214	422.60782	276.11340							
2615	21.783	1075.75928	348.20471	391.13715	1584.58435	430.02927	265.09915							
2616	21.792	1077.87317	353.87320	369.80920	1584.11035	436.55304	254.80536							
2617	21.800	1079.57532	360.85712	349.96411	1584.23535	443.39835	245.21033							
2618	21.808	1081.27563	368.52292	330.46194	1584.32373	450.28674	236.41171							
2619	21.817	1082.09302	376.71265	312.47018	1584.64050	456.55319	228.06779							
2620	21.825	1084.42444	385.42874	293.94839	1584.90894	462.39038	220.46986							
2621	21.833	1085.94348	394.53473	276.42224	1585.02820	467.66232	213.60052							
2622	21.842	1087.41846	404.02539	259.81625	1585.22131	472.16113	207.53679							
2623	21.850	1089.10889	413.72913	243.20653	1585.46326	475.90842	202.37297							
2624	21.858	1089.63867	422.32269	229.59175	1585.73962	478.84247	198.16806							
2625	21.867	1090.58594	430.81461	218.12234	1585.97925	480.66187	194.94702							
2626	21.875	1090.98901	438.39017	208.33153	1586.31641	481.65686	192.92924							
2627	21.883	1091.70605	445.17352	200.76253	1586.77954	481.44360	191.84830							
2628	21.892	1091.64880	450.36993	194.66971	1587.13293	480.07343	191.87740							
2629	21.900	1091.05469	454.33545	190.43916	1587.71277	477.83469	193.00635							
2630	21.908	1090.29199	457.23129	187.56818	1588.10889	474.32913	195.16779							
2631	21.917	1089.12866	458.12689	186.49998	1588.80139	469.92590	198.39809							
2632	21.925	1088.16675	458.08292	186.58713	1589.46277	464.95966	202.61792							
2633	21.933	1086.15295	456.02869	188.49596	1589.74292	457.94293	208.09737							
2634	21.942	1084.40063	452.49750	191.65211	1590.58899	450.48642	215.51520							
2635	21.950	1081.77710	447.43173	196.26251	1590.72974	442.22311	223.70898							
2636	21.958	1079.81470	441.56482	201.88269	1592.45044	433.56381	233.60646							
2637	21.967	1077.62891	434.61227	208.48636	1593.56201	423.83871	244.60780							
2638	21.975	1075.59448	426.88464	215.91039	1595.08606	414.22833	256.89703							
2639	21.983	1073.90588	418.63849	224.23691	1596.67065	404.19318	271.31757							
2640	21.992	1072.20630	409.83023	233.48804	1600.22559	394.91867	287.33072							
2641	22.000	1070.75940	400.83667	243.19962	1602.49072	385.58441	304.52521							
2642	22.008	1068.38489	390.30380	256.87274	1604.44775	376.55219	322.97260							
2643	22.017	1067.28113	380.59052	267.54630	1606.68567	368.49030	342.37497							
2644	22.025	1066.50220	370.93726	279.24240	1609.00256	361.40866	362.47229							
2645	22.033	1065.59875	361.11029	291.26559	1610.99707	355.46912	383.02252							
2646	22.042	1064.93921	351.31561	303.57944	1613.55261	350.99265	403.58975							
2647	22.050	1064.25085	341.91550	316.55441	1615.56409	347.39362	425.00156							
2648	22.058	1063.53027	332.77762	330.65729	1617.40015	345.48801	443.67886							
2649	22.067	1063.03589	324.39771	345.03699	1618.90906	344.43262	461.48480							
2650	22.075	1062.31372	316.65692	360.38867	1620.00354	344.16412	477.71246							
2651	22.083	1061.65479	309.84537	376.83566	1620.18042	344.33371	491.62018							
2652	22.092	1060.75366	304.77219	394.83838	1619.82910	343.57285	502.85519							
2653	22.100	1060.05383	300.25018	412.13287	1619.09192	344.10651	512.41772							
2654	22.108	1059.33020	296.83923	430.01031	1618.02319	344.76254	519.49207							
2655	22.117	1058.92017	295.28452	444.89407	1616.64270	345.18097	524.20660							
2656	22.125	1058.23694	294.53171	462.38528	1615.06543	345.54385	526.77582							
2657	22.133	1057.52454	295.01440	479.39468	1613.48755	345.72812	527.08484							
2658	22.142	1056.26978	296.11993	496.29572	1611.96667	345.95160	525.49554							
2659	22.150	1055.50928	298.60919	511.54587	1610.37976	345.78366	522.04962							
2660	22.158	1054.89001	301.58170	525.82013	1608.44971	345.82712	516.70508							
2661	22.167	1052.94385	304.29605	540.81458	1606.70581	345.73959	510.17245							
2662	22.175	1052.36206	308.47311	553.73627	1605.14404	345.82965	502.22452							
2663	22.183	1052.15161	312.19406	563.24902	1603.94751	346.28403	493.70081							
2664	22.192	1051.79492	315.38818	570.30872	1603.21765	347.60223	483.95972							
2665	22.200	1051.36584	319.56659	578.66205	1602.59216	348.97708	473.32828							
2666	22.208	1051.33606	322.75995	582.86774	1602.07837	350.69504	461.73776							
2667	22.217	1051.42944	325.46234	585.61334	1600.19165	352.71490	449.72940							
2668	22.225	1051.72449	327.00488	584.47717	1600.11377	355.46164	437.35306							
2669	22.233	1052.25366	328.63434	583.78766	1599.80872	358.59811	425.35788							
2670	22.242	1053.19678	328.89917	579.22333	1601.14685	362.22006	410.36880							
2671	22.250	1054.06665	329.03113	573.51563	1601.18774	366.71646	396.52286							
2672	22.258	1056.06738	328.98203	562.48505	1601.54321	371.67700	382.26920							
2673	22.267	1057.48474	328.73083	551.07489	1601.57996	377.20493	367.65912							
2674	22.275	1059.34363	327.95117	538.11279	1601.46448	383.35718	353.12570							
2675	22.283	1061.52563	327.81970	522.76654	1601.29578	389.97482	338.59058							
2676	22.292	1063.69751	328.11829	506.54022	1601.07947	396.98248	324.14731							
2677	22.300	1066.25830	329.51743	486.41656	1600.81470	404.53156	309.98999							
2678	22.308	1068.69055	331.27304	467.69125	1600.69653	412.44193	296.29956							
2679	22.317	1071.34375	334.05240	448.31451	1600.06152	420.39618	282.96091							
2680	22.325	1073.61572	337.27515	430.78543	1599.65112	428.66779	270.29221							
2681	22.333	1076.29724	341.82687	410.23584	1599.22144	437.17624	258.52448							
2682	22.342	1079.02869	347.47223	390.07327	1598.62549	445.89957	247.34254							
2683	22.350	1082.27991	353.52151	369.04126	1597.93250	453.89987	237.79576							
2684	22.358	1084.84192	361.04187	349.13980	1596.78931	461.46579	228.08061							
2685	22.367	1087.56079	369.24094	329.77682	1595.88452	468.78284	219.43784							
2686	22.375	1090.91504	378.56375	310.19122	1594.54150	475.35776	211.57939							
2687	22.383	1092.84546	387.59668	292.64249	1593.06616	481.19177	204.66779							
2688	22.392	1095.48486	397.45786	275.57730	1591.41467	486.27844	198.47751							
2689	22.400	1098.83472	407.96170	257.57800	1590.03333	490.60089	193.20831							
2690	22.408	1101.01440	418.67340	240.61685	1588.52600	494.03973	189.05342							
2691	22.417	1103.66138	429.58371	226.61815	1586.91101	496.17050	185.49884							
2692	22.425	1104.83472	439.18811	214.85246	1585.46326	497.37421	183.29520							
2693	22.433	1105.70032	448.13266	204.79117	1584.27502	497.50867	181.82312							
2694	22.442	1106.63025	456.22592	196.50555	1583.22791	496.50589	181.59837							
2695	22.450	1106.38013	462.46671	190.60753	1582.50269	494.23499	182.46259							
2696	22.458	1105.63721	467.08945	185.95113	1582.16711	490.91519	184.56927							
2697	22.467	1104.30933	470.52985	183.45726	1581.81958	486.24878	187.50449							
2698	22.475	1102.35522	471.90201	182.65808	1581.86597	480.50858	191.53767							
2699	22.483	1100.03943	471.47446	183.25406	1582.32361	474.44388	196.42104							
2700	22.492	1096.17175	468.99069	185.95555	1582.42029	465.80215	202.77586							
2701	22.500	1093.26990	465.35828	189.50089	1583.66064	457.97028	210.77452							
2702	22.508	1090.10486	460.53098	194.12656	1584.73987	449.00650	219.53105							
2703	22.517	1087.41614	454.57468	199.60727	1586.13342	439.30386	229.57997							
2704	22.525	1083.72791	447.46469	206.42975	1587.78931	429.19257	240.89061							
2705	22.533	1080.83606	439.85245	213.73575	1589.35461	418.03210	253.14342							
2706	22.542	1077.67188	431.33395	221.88292	1591.41260	407.35086	266.87720							
2707	22.550	1074.84143	422.34943	230.60709	1593.48389	396.64929	282.71402							
2708	22.558	1072.48120	413.04117	239.94069	1595.31055	386.34543	299.68747							
2709	22.567	1070.51550	403.51984	248.51648	1599.01160	376.97568	318.24323							
2710	22.575	1067.93555	392.84183	262.34238	1598.87793	367.22092	336.14456							
2711	22.583	1066.44885	382.64023	273.04547	1604.13232	361.60025	358.06992							
2712	22.592	1064.86035	372.15430	284.46445	1606.18420	354.64014	379.34427							
2713	22.600	1063.15405	361.09195	297.24136	1607.85400	348.94958	400.96695							
2714	22.608	1062.14124	351.05829	309.49750	1609.21228	344.39337	423.90121							
